<?xml version="1.0" encoding="utf-8"?>
<!-- Generator: Adobe Illustrator 22.0.1, SVG Export Plug-In . SVG Version: 6.00 Build 0)  -->
<svg version="1.1" id="_x31_f1e6" xmlns="http://www.w3.org/2000/svg" xmlns:xlink="http://www.w3.org/1999/xlink" x="0px" y="0px"
	 viewBox="0 0 36 36" style="enable-background:new 0 0 36 36;" xml:space="preserve">
<style type="text/css">
	.st0{fill:#3B88C3;}
	.st1{fill:#FFFFFF;}
</style>
<path class="st0" d="M36,32c0,2.2-1.8,4-4,4H4c-2.2,0-4-1.8-4-4V4c0-2.2,1.8-4,4-4h28c2.2,0,4,1.8,4,4V32z"/>
<g>
	<path class="st1" d="M19.2,18.1c0-0.8-0.5-1.3-1.5-1.4h-1.6c-1.1-0.1-2.1-0.6-2.8-1.5c-0.8-0.9-1.2-2-1.2-3.2
		c0-1.5,0.5-2.8,1.5-3.8c1-1,2.3-1.5,3.9-1.5c1.8,0,3.4,0.7,4.6,2.2c1.2,1.4,1.8,3.3,1.8,5.6c0,4.3-1.7,8.6-5,13
		c-1.3,1.6-2.3,2.4-3.2,2.4c-1.1,0-1.6-0.5-1.6-1.6c0-0.4,0.3-1,0.9-1.7c1.5-1.9,2.7-4.1,3.6-6.4C19,19.3,19.2,18.6,19.2,18.1z"/>
</g>
</svg>
